<?xml version="1.0" encoding="UTF-8" standalone="no"?>
<!-- Created with Inkscape (http://www.inkscape.org/) -->

<svg
   width="1080"
   height="1920"
   viewBox="0 0 285.74999 508"
   version="1.1"
   id="svg5"
   inkscape:version="1.2.2 (b0a8486541, 2022-12-01)"
   sodipodi:docname="SceneTripGUIBase.svg"
   xml:space="preserve"
   xmlns:inkscape="http://www.inkscape.org/namespaces/inkscape"
   xmlns:sodipodi="http://sodipodi.sourceforge.net/DTD/sodipodi-0.dtd"
   xmlns:xlink="http://www.w3.org/1999/xlink"
   xmlns="http://www.w3.org/2000/svg"
   xmlns:svg="http://www.w3.org/2000/svg"><sodipodi:namedview
     id="namedview7"
     pagecolor="#ffffff"
     bordercolor="#000000"
     borderopacity="0.25"
     inkscape:showpageshadow="2"
     inkscape:pageopacity="0.0"
     inkscape:pagecheckerboard="0"
     inkscape:deskcolor="#d1d1d1"
     inkscape:document-units="mm"
     showgrid="false"
     inkscape:lockguides="false"
     inkscape:zoom="0.51535096"
     inkscape:cx="986.70623"
     inkscape:cy="555.93183"
     inkscape:window-width="1180"
     inkscape:window-height="1014"
     inkscape:window-x="0"
     inkscape:window-y="0"
     inkscape:window-maximized="0"
     inkscape:current-layer="layer2"><inkscape:grid
       type="xygrid"
       id="grid9" /></sodipodi:namedview><defs
     id="defs2"><linearGradient
       inkscape:collect="always"
       id="linearGradient6357"><stop
         style="stop-color:#999999;stop-opacity:1;"
         offset="0"
         id="stop6353" /><stop
         style="stop-color:#ffffff;stop-opacity:0;"
         offset="0.94999999"
         id="stop6355" /></linearGradient><linearGradient
       inkscape:collect="always"
       id="linearGradient4528"><stop
         style="stop-color:#999999;stop-opacity:1;"
         offset="0"
         id="stop4524" /><stop
         style="stop-color:#ffffff;stop-opacity:0;"
         offset="0.94999999"
         id="stop4526" /></linearGradient><linearGradient
       inkscape:collect="always"
       xlink:href="#linearGradient4528"
       id="linearGradient4532"
       x1="142.875"
       y1="455.08331"
       x2="142.875"
       y2="447.13297"
       gradientUnits="userSpaceOnUse"
       gradientTransform="translate(0,5.2917016)" /><linearGradient
       inkscape:collect="always"
       xlink:href="#linearGradient6357"
       id="linearGradient4654"
       gradientUnits="userSpaceOnUse"
       x1="142.875"
       y1="455.08331"
       x2="142.875"
       y2="447.133"
       gradientTransform="translate(0,-497.41025)" /></defs><g
     inkscape:groupmode="layer"
     id="layer2"
     inkscape:label="Layer"><rect
       style="fill:#ffffff;fill-opacity:1;stroke:#14b888;stroke-width:4.23333;stroke-dasharray:none;stroke-opacity:1"
       id="rect5053"
       width="243.41667"
       height="42.33334"
       x="21.166666"
       y="232.83333"
       ry="7.9375" /><g
       style="opacity:1;fill:#14b888;fill-opacity:1"
       id="g5558"
       transform="matrix(0.05297031,0,0,0.05297031,228.44261,240.4396)"><g
         id="g5546"
         style="fill:#14b888;fill-opacity:1">
	<path
   class="st0"
   d="m 172.625,102.4 c -42.674,0 -77.392,34.739 -77.392,77.438 0,5.932 4.806,10.74 10.733,10.74 5.928,0 10.733,-4.808 10.733,-10.74 0,-30.856 25.088,-55.959 55.926,-55.959 5.928,0 10.733,-4.808 10.733,-10.74 0,-5.931 -4.805,-10.739 -10.733,-10.739 z"
   style="fill:#14b888;fill-opacity:1"
   id="path5540" />
	<path
   class="st0"
   d="M 361.657,301.511 C 381.059,271.075 392.302,234.965 392.302,196.267 392.302,88.036 304.318,0 196.151,0 157.475,0 121.386,11.25 90.969,30.663 66.734,46.123 46.11,66.759 30.659,91.008 11.257,121.444 0,157.568 0,196.267 c 0,108.217 87.998,196.266 196.151,196.266 38.676,0 74.779,-11.264 105.197,-30.677 24.234,-15.46 44.858,-36.096 60.309,-60.345 z m -101.899,18.731 c -19.075,9.842 -40.708,15.403 -63.607,15.403 -76.797,0 -139.296,-62.535 -139.296,-139.378 0,-22.912 5.558,-44.558 15.394,-63.644 13.318,-25.856 34.483,-47.019 60.323,-60.331 19.075,-9.842 40.694,-15.403 63.578,-15.403 76.812,0 139.296,62.521 139.296,139.378 0,22.898 -5.558,44.53 -15.394,63.616 -13.303,25.856 -34.454,47.033 -60.294,60.359 z"
   style="fill:#14b888;fill-opacity:1"
   id="path5542" />
	<path
   class="st0"
   d="M 499.516,439.154 386.275,326.13 c -16.119,23.552 -36.771,44.202 -60.309,60.345 l 113.241,113.024 c 8.329,8.334 19.246,12.501 30.148,12.501 10.916,0 21.833,-4.167 30.162,-12.501 16.644,-16.669 16.644,-43.677 -10e-4,-60.345 z"
   style="fill:#14b888;fill-opacity:1"
   id="path5544" />
</g></g><rect
       style="fill:#00ccff;fill-opacity:1;stroke:none;stroke-width:4.01112;stroke-dasharray:none;stroke-opacity:1"
       id="rect5808"
       width="285.75"
       height="132.29167"
       x="0"
       y="42.333332"
       ry="0" /><text
       xml:space="preserve"
       style="font-size:3.175px;fill:#ffffff;fill-opacity:1;stroke:#000000;stroke-width:1.32292;stroke-dasharray:none;stroke-opacity:1;paint-order:stroke fill markers"
       x="93.345001"
       y="127.85937"
       id="text5864"><tspan
         sodipodi:role="line"
         id="tspan5862"
         style="font-style:normal;font-variant:normal;font-weight:normal;font-stretch:normal;font-size:50.8px;font-family:'Noto Sans JP';-inkscape-font-specification:'Noto Sans JP, @wght=700';font-variant-ligatures:normal;font-variant-caps:normal;font-variant-numeric:normal;font-variant-east-asian:normal;font-variation-settings:'wght' 700;fill:#ffffff;stroke:#000000;stroke-width:1.32292;stroke-dasharray:none;paint-order:stroke fill markers"
         x="93.345001"
         y="127.85937">地図</tspan></text></g><g
     inkscape:label="UpperLayer"
     inkscape:groupmode="layer"
     id="layer1"><rect
       style="fill:#27f2b6;fill-opacity:1;stroke-width:0.23665"
       id="rect848"
       width="285.75"
       height="42.333332"
       x="0"
       y="0" /><rect
       style="fill:#ffffff;fill-opacity:1;stroke-width:0.251005"
       id="rect3242"
       width="285.75"
       height="47.625"
       x="0"
       y="460.375" /><rect
       style="mix-blend-mode:multiply;fill:url(#linearGradient4532);fill-opacity:1;stroke-width:0.118325"
       id="rect3242-7"
       width="285.75"
       height="7.950356"
       x="0"
       y="452.42465" /><rect
       style="mix-blend-mode:multiply;fill:url(#linearGradient4654);fill-opacity:1;stroke-width:0.118325"
       id="rect3242-7-5"
       width="285.75"
       height="7.950356"
       x="0"
       y="-50.27726"
       transform="scale(1,-1)" /><rect
       style="fill:#000000;fill-opacity:0;stroke-width:0.264583"
       id="rect3411"
       width="52.916668"
       height="52.916668"
       x="-1.2715658e-06"
       y="-2.5431316e-06" /><g
       id="g5971"
       transform="matrix(0.86363636,0,0,1,-1.0222539,-5.423959)"><path
         style="fill:none;fill-opacity:1;stroke:#ffffff;stroke-width:3.96875;stroke-dasharray:none"
         d="M 11.90625,26.590625 H 41.010417"
         id="path3584"
         sodipodi:nodetypes="cc" /><path
         style="fill:none;fill-opacity:1;stroke:#ffffff;stroke-width:3.96875;stroke-dasharray:none"
         d="M 11.90625,35.851042 H 41.010417"
         id="path3584-3"
         sodipodi:nodetypes="cc" /><path
         style="fill:none;fill-opacity:1;stroke:#ffffff;stroke-width:3.96875;stroke-dasharray:none"
         d="M 11.90625,17.330209 H 41.010417"
         id="path3584-3-6"
         sodipodi:nodetypes="cc" /></g><text
       xml:space="preserve"
       style="font-style:normal;font-variant:normal;font-weight:normal;font-stretch:normal;font-size:50.8px;font-family:'Noto Sans JP';-inkscape-font-specification:'Noto Sans JP, @wght=700';font-variant-ligatures:normal;font-variant-caps:normal;font-variant-numeric:normal;font-variant-east-asian:normal;font-variation-settings:'wght' 700;fill:#ffffff;fill-opacity:1;stroke:none;stroke-width:3.96875;stroke-dasharray:none;stroke-opacity:1;paint-order:stroke fill markers"
       x="95.119965"
       y="29.039272"
       id="text6005"><tspan
         sodipodi:role="line"
         id="tspan6003"
         style="font-style:normal;font-variant:normal;font-weight:normal;font-stretch:normal;font-size:19.7556px;font-family:'Noto Sans JP';-inkscape-font-specification:'Noto Sans JP, @wght=700';font-variant-ligatures:normal;font-variant-caps:normal;font-variant-numeric:normal;font-variant-east-asian:normal;font-variation-settings:'wght' 700;stroke:none;stroke-width:3.96875"
         x="95.119965"
         y="29.039272">SceneTrip</tspan></text></g><style
     type="text/css"
     id="style5538">
	.st0{fill:#4B4B4B;}
</style></svg>
