<?xml version="1.0" encoding="UTF-8" standalone="no"?>
<!-- Created with Inkscape (http://www.inkscape.org/) -->

<svg
   width="191.49907mm"
   height="65.566147mm"
   viewBox="0 0 191.49907 65.566147"
   version="1.1"
   id="svg1"
   inkscape:version="1.4.2 (f4327f4, 2025-05-13)"
   sodipodi:docname="logo_prj.svg"
   xmlns:inkscape="http://www.inkscape.org/namespaces/inkscape"
   xmlns:sodipodi="http://sodipodi.sourceforge.net/DTD/sodipodi-0.dtd"
   xmlns:xlink="http://www.w3.org/1999/xlink"
   xmlns="http://www.w3.org/2000/svg"
   xmlns:svg="http://www.w3.org/2000/svg">
  <sodipodi:namedview
     id="namedview1"
     pagecolor="#ffffff"
     bordercolor="#000000"
     borderopacity="0.25"
     inkscape:showpageshadow="2"
     inkscape:pageopacity="0.0"
     inkscape:pagecheckerboard="0"
     inkscape:deskcolor="#d1d1d1"
     inkscape:document-units="mm"
     inkscape:zoom="1.0708779"
     inkscape:cx="409.94403"
     inkscape:cy="245.59289"
     inkscape:window-width="1920"
     inkscape:window-height="1052"
     inkscape:window-x="-8"
     inkscape:window-y="-8"
     inkscape:window-maximized="1"
     inkscape:current-layer="layer1" />
  <defs
     id="defs1">
    <linearGradient
       inkscape:collect="always"
       xlink:href="#linearGradient60"
       id="linearGradient61"
       x1="2.2835386"
       y1="2.2984836"
       x2="24.524008"
       y2="8.3365088"
       gradientUnits="userSpaceOnUse"
       gradientTransform="matrix(7.9999399,0,0,7.9999399,-10.831686,-12.578706)" />
    <linearGradient
       id="linearGradient60"
       inkscape:collect="always">
      <stop
         style="stop-color:#27f2b6;stop-opacity:1;"
         offset="0"
         id="stop60" />
      <stop
         style="stop-color:#384ade;stop-opacity:1;"
         offset="1"
         id="stop61" />
    </linearGradient>
  </defs>
  <g
     inkscape:label="Layer 1"
     inkscape:groupmode="layer"
     id="layer1">
    <path
       id="text56"
       style="font-style:normal;font-variant:normal;font-weight:bold;font-stretch:normal;font-size:8.46667px;line-height:0px;font-family:Loupot;-inkscape-font-specification:'Loupot Bold';text-align:start;letter-spacing:0px;writing-mode:lr-tb;direction:ltr;text-anchor:start;fill:url(#linearGradient61);stroke:none;stroke-width:2.39998;stroke-linecap:square;stroke-linejoin:round;stroke-dasharray:none;stroke-opacity:1"
       d="M 19.711307,0 C 11.989766,3.0479771 6.7060455,10.161843 4.7417884,16.325557 L 19.980025,32.171438 C 18.354438,35.96453 11.990294,39.624582 8.4004567,39.827781 L 10.293866,32.510476 3.9273785,28.310187 0,43.147436 6.7716291,47.413803 C 16.118759,46.939407 25.738599,40.369937 28.922047,30.819609 L 13.74996,15.105966 c 1.219191,-3.725332 5.62215,-7.5889825 8.805598,-8.8758529 v 8.4665759 l 7.110619,2.439102 V 4.8079638 Z m 124.849323,1.1534313 -26.4168,1.4883089 3.65867,6.8418683 7.85476,-0.475194 -8.94202,34.2054235 6.37062,4.200208 10.22773,-38.8810679 11.31085,-0.7439944 z m 17.67734,3.2494156 -1.2857,5.0807616 5.28336,7.7225015 2.23241,-8.6733743 z M 39.269657,19.641052 c -5.554094,1.964225 -10.566721,9.552249 -10.566721,18.086584 0,1.828787 0.268401,3.657173 0.810282,5.485959 l 7.925036,4.200208 c 5.166346,-0.469596 7.788478,-1.397829 12.365044,-3.489174 l 6.585598,3.489174 c 4.97505,-0.451996 7.591151,-1.329909 11.864823,-3.261735 l 5.270952,3.261735 11.78627,-18.222982 -4.134082,14.837168 5.419783,3.385814 9.392632,-4.067889 7.677006,4.067889 c 5.96048,-0.541594 8.53457,-1.694387 14.63052,-4.539165 l 2.02983,-0.946713 -3.04682,-5.419799 -3.25352,1.694947 c -4.06398,2.099744 -7.72135,3.183256 -11.64985,3.183256 -0.47408,-1.35463 -0.74416,-2.777179 -0.74416,-4.402767 l 10.70314,-2.373022 1.35598,-9.752247 -8.19789,-5.217241 c -5.41875,1.916386 -10.322711,9.187931 -10.55844,17.466509 L 88.560331,40.435456 92.624132,25.060852 85.513518,20.658004 75.01294,36.574285 79.754736,23.84126 73.185674,19.777451 68.567908,37.25636 66.748906,38.203073 c -4.063969,2.099744 -7.721342,3.183256 -11.64984,3.183256 -0.474156,-1.35463 -0.744154,-2.777179 -0.744154,-4.402767 l 10.703143,-2.373022 1.355974,-9.752247 -8.197883,-5.217241 c -5.554094,1.964225 -10.566721,9.552249 -10.566721,18.086584 0,0.183201 0.0029,0.367194 0.008,0.549595 -4.006362,2.051105 -7.623142,3.108858 -11.505121,3.108858 -0.474156,-1.35463 -0.744154,-2.777179 -0.744154,-4.402767 l 0.268721,-2.439102 c 0.609592,-3.86077 2.844015,-6.841708 5.146934,-8.264097 l 0.946705,4.146528 4.650845,2.281983 -0.08264,-8.226818 z m 120.595343,0.136001 -6.23006,23.572543 6.23006,4.063809 6.27554,-2.761579 -3.83642,15.089406 4.87822,5.824916 5.03944,-19.012576 1.2609,0.859833 c 0,0 2.94082,-0.709595 7.04448,-3.456054 4.10365,-2.74694 6.62859,-6.104274 7.69863,-8.125059 2.3503,-3.505734 2.90646,-7.597782 3.27328,-11.718552 l -5.48599,-3.658694 -9.41744,9.41337 1.69498,-6.093715 -5.82492,-3.99765 -4.40281,17.32187 -6.90806,3.538774 4.5351,-16.862994 z m -21.06315,0.064 -6.09778,23.436144 6.50293,4.270528 2.84424,-10.63704 7.04448,-8.330177 4.4028,2.980697 2.17039,-7.180906 -5.75878,-3.724772 -6.43677,8.871694 1.83141,-5.618198 z m -79.027139,6.436752 0.0664,5.485959 -5.213081,2.778139 c 0.609595,-3.860773 2.844018,-6.841711 5.146937,-8.2641 z m 47.277379,0 0.0664,5.485959 -5.21308,2.778139 c 0.6096,-3.860691 2.84438,-6.841629 5.14694,-8.264098 z m 76.45573,3.741411 c -3.69744,7.854182 -9.14459,10.074725 -9.14459,10.074725 l -0.51264,0.301593 0.85161,-3.212135 z"
       sodipodi:nodetypes="ccccccccccccccccccccccccccccccsccccccccccccccccccccccccccccccccccsccccccccccccccccczzcccccccccccccccccccccccccccccccccc" />
  </g>
</svg>
