<svg width="640" height="480" version="1.1" viewBox="0 0 169.33333 127" xmlns="http://www.w3.org/2000/svg"><defs><filter id="b" x="-.086251176" y="-.41037217" width="1.1725024" height="1.8207443" color-interpolation-filters="sRGB"><feFlood flood-color="rgb(90,90,90)" in="SourceGraphic" result="flood"/><feGaussianBlur in="SourceGraphic" result="blur" stdDeviation="4.000000"/><feOffset dx="0.000000" dy="0.000000" in="blur" result="offset"/><feComposite in="flood" in2="offset" operator="in" result="comp1"/><feComposite in="SourceGraphic" in2="comp1" result="comp2"/></filter><filter id="a" x="-.12940502" y="-.37795271" width="1.25881" height="1.7559054" color-interpolation-filters="sRGB"><feFlood flood-color="rgb(90,90,90)" in="SourceGraphic" result="flood"/><feGaussianBlur in="SourceGraphic" result="blur" stdDeviation="4.000000"/><feOffset dx="0.000000" dy="0.000000" in="blur" result="offset"/><feComposite in="flood" in2="offset" operator="in" result="comp1"/><feComposite in="SourceGraphic" in2="comp1" result="comp2"/></filter></defs><rect width="169.33333" height="127" fill="#27f2b6" stroke-linecap="square" stroke-linejoin="round" stroke-width=".3"/><path d="m29.01525 59.050767h3.683c-0.6858-5.5626-1.0922-11.2522-1.1684-13.9192l10.8458 13.9192h2.9972c-0.0762-1.5748-0.0762-2.4384-0.0762-3.9624 0-3.7084 0.2286-8.89 0.4826-13.8684h-3.683c0.762 5.715 1.0668 10.2616 1.143 11.811l-9.2202-11.811h-4.6482c0.0762 1.5748 0.0762 2.413 0.0762 3.9624 0 3.9624-0.2032 8.9154-0.4318 13.8684zm19.050018-6.096c0 3.9624 2.819399 6.4008 7.086599 6.4008s7.0866-2.4384 7.0866-6.4008c0-3.9116-2.8194-6.4008-7.0866-6.4008s-7.086599 2.4892-7.086599 6.4008zm4.825999 0c0-3.1496 0.5588-4.6228 2.2606-4.6228 1.7272 0 2.2606 1.4732 2.2606 4.6228 0 3.2004-0.5334 4.6228-2.2606 4.6228-1.7018 0-2.2606-1.4224-2.2606-4.6228zm16.763988 6.096h4.9784c-0.0762-1.9812-0.0762-3.9624-0.0762-5.9436v-5.9436c0-1.9812 0-3.9624 0.0762-5.9436h-4.9784c0.0762 1.9812 0.0762 3.9624 0.0762 5.9436v5.9436c0 1.9812 0 3.9624-0.0762 5.9436zm8.051809 0h4.7244c-0.0762-1.3462-0.0762-2.7178-0.0762-4.064v-4.5466c0.8382-1.0414 1.4986-1.4224 2.2352-1.4224 0.9144 0 1.2446 0.5588 1.2446 1.7018v4.2672c0 1.3462-0.0254 2.7178-0.0762 4.064h4.7244c-0.0762-1.3462-0.0762-2.7178-0.0762-4.064v-4.5466c0.7874-1.0668 1.524-1.4224 2.2606-1.4224 0.9398 0 1.2192 0.5842 1.2192 1.7018v4.2672c0 1.3462 0 2.7178-0.0762 4.064h4.7244c-0.0762-1.3462-0.0762-2.7178-0.0762-4.064v-4.8514c0-2.2098-1.4224-3.5814-3.7846-3.5814-1.7018 0-3.1496 0.7112-4.4704 2.2606-0.4826-1.4224-1.778-2.2606-3.5814-2.2606-1.7526 0-3.1242 0.7874-4.4958 2.286l0.0762-1.9812h-4.4958c0.0762 1.3462 0.0762 2.7178 0.0762 4.0386v4.0894c0 1.3462 0 2.7178-0.0762 4.064zm26.288986 0.3048c1.397 0 2.5908-0.5334 3.9116-1.7526 0.0254 0.5334 0.0762 0.9398 0.1524 1.4478h4.2672c-0.2286-0.9906-0.3302-2.3368-0.3302-3.556v-4.953c0-2.54-2.0574-3.9878-5.715-3.9878-1.7018 0-3.2512 0.2794-5.08 1.016v3.6068h0.0762c1.8288-2.0066 3.1496-2.8448 4.4704-2.8448 1.143 0 1.778 0.5334 1.778 1.6002v1.3462l-2.2098 0.5334c-3.3274 0.7874-4.9276 2.159-4.9276 4.2418 0 1.9812 1.4732 3.302 3.6068 3.302zm0.7874-4.1148c0-1.1684 0.5588-1.905 1.8542-2.2606l0.889-0.254v3.5814c-0.5334 0.4826-0.9398 0.6096-1.3716 0.6096-0.8636 0-1.3716-0.5588-1.3716-1.6764zm15.18921-0.1778c3.556 0 6.1214-1.778 6.1214-4.191 0-1.4224-0.9144-2.5146-2.54-3.0988 1.7272 0.127 2.8194 0.2794 3.5306 0.381v-2.0828l-7.3152 0.6096c-3.4544 0.1016-5.8166 1.778-5.8166 4.191 0 1.5494 0.9652 2.8194 2.6162 3.556l-0.0762 0.0762c-1.4986 1.397-1.9304 2.286-1.9304 3.2512 0 0.8128 0.3048 1.3716 0.7874 1.7526-1.0414 0.8636-1.524 1.5494-1.524 2.3622 0 1.7272 2.1082 2.743199 6.3754 2.743199 4.2418 0 6.5024-1.473199 6.5024-4.267199 0-2.2606-1.524-3.5814-3.9624-3.683l-4.4196-0.1778c-0.6096-0.0254-0.8636-0.2032-0.8636-0.4572 0-0.2032 0.1016-0.4318 0.3302-0.7112l0.3302-0.4318c0.5842 0.127 1.1938 0.1778 1.8542 0.1778zm0.0508-1.6256c-1.1938 0-1.6002-0.9652-1.6002-2.54 0-1.778 0.5334-2.6416 1.6002-2.6416s1.6002 0.889 1.6002 2.6416c0 1.5748-0.4064 2.54-1.6002 2.54zm-3.8354 7.9248c0-0.3556 0.127-0.8128 0.3302-1.1938l5.6896 0.2794c1.2446 0.0508 1.8034 0.3556 1.8034 0.9652 0 0.9398-1.3208 1.4224-3.81 1.4224-2.8448 0-4.0132-0.4064-4.0132-1.4732zm18.03402-14.8082c-3.7846 0-6.4516 2.5654-6.4516 6.4516 0 3.9116 2.6924 6.35 6.9342 6.35 1.651 0 3.0734-0.3048 4.4958-0.8636l0.254-2.8448h-0.1016c-1.3716 1.3208-2.8702 1.8796-3.9624 1.8796-1.651 0-2.7432-1.3462-2.921-4.0132h1.2446c2.0574 0 4.5466 0.0508 6.477 0.127 0.1016-0.4826 0.127-0.9144 0.127-1.3208 0-3.429-2.5146-5.7658-6.096-5.7658zm1.6256 5.3086c-0.8128 0.0762-1.5748 0.1016-2.1336 0.1016h-1.27c0.0762-2.5654 0.6096-3.6322 1.778-3.6322 1.1176 0 1.651 0.9652 1.651 2.9718 0 0.2032 0 0.381-0.0254 0.5588z" fill="#fff" filter="url(#b)" stroke-linecap="square" stroke-linejoin="round" stroke-width=".3" aria-label="No Image"/><path d="m55.209875 82.549997c-2.991283 1.180766-5.038167 3.936642-5.79911 6.324431l5.90321 6.138614c-0.629744 1.46942-3.095178 2.88731-4.485862 2.96602l0.733497-2.83468-2.466343-1.627176-1.521442 5.747876 2.623288 1.652768c3.621027-0.18378 7.347701-2.728758 8.580952-6.42851l-5.877581-6.087375c0.472307-1.443174 2.17799-2.939932 3.411237-3.43846v3.279908l2.754616 0.944895v-4.77573zm48.365935 0.446831-10.233715 0.576567 1.417349 2.650501 3.04289-0.184088-3.464089 13.250994 2.467943 1.627138 3.962162-15.062316 4.38177-0.288215zm6.84812 1.258806-0.49808 1.968262 2.04675 2.991652 0.86482-3.36002zm-47.637257 5.9032c-2.151625 0.760927-4.09349 3.700491-4.09349 7.006638 0 0.70847 0.103976 1.41678 0.313898 2.12524l3.070116 1.627138c2.001414-0.18192 3.017214-0.54151 4.79015-1.351688l2.551224 1.351688c1.927308-0.17511 2.940771-0.5152 4.596368-1.263588l2.041938 1.263588 4.565936-7.059485-1.60152 5.747837 2.099593 1.311648 3.638655-1.575878 2.974031 1.575878c2.309057-0.20981 3.306245-0.6564 5.667782-1.758448l0.786346-0.36675-1.180322-2.09961-1.260396 0.65662c-1.574363 0.81343-2.991208 1.23317-4.513088 1.23317-0.183656-0.52477-0.288283-1.07586-0.288283-1.7056l4.146338-0.9193 0.525299-3.777973-3.175818-2.021125c-2.099194 0.742399-3.998962 3.559355-4.090282 6.766438l-2.469539 1.2892 1.574294-5.956041-2.754613-1.705637-4.067866 6.165878 1.836946-4.932704-2.544819-1.574294-1.788897 6.771238-0.704671 0.36675c-1.57436 0.81343-2.991206 1.23317-4.513085 1.23317-0.183685-0.52477-0.288281-1.07586-0.288281-1.7056l4.146339-0.9193 0.525297-3.777973-3.175815-2.021125c-2.151626 0.760927-4.093489 3.700491-4.093489 7.006638 0 0.071 0.0011 0.14225 0.0031 0.21292-1.552043 0.79459-2.953164 1.20435-4.457021 1.20435-0.183687-0.52478-0.288279-1.07587-0.288279-1.7056l0.1041-0.9449c0.236152-1.495646 1.101755-2.650444 1.993893-3.201467l0.366748 1.606342 1.801712 0.884025-0.03202-3.187022zm46.717977 0.05272-2.4135 9.131878 2.4135 1.574298 2.43111-1.069828-1.48621 5.845568 1.8898 2.25653 1.95224-7.36537 0.48848 0.3331s1.13925-0.2749 2.72898-1.338858c1.58974-1.06415 2.56789-2.36476 2.98242-3.1476 0.91049-1.3581 1.12594-2.943346 1.26804-4.539712l-2.12523-1.417358-3.64827 3.646691 0.65662-2.360669-2.25654-1.54867-1.70562 6.710398-2.67615 1.37091 1.75688-6.532638zm-8.15975 0.0248-2.362248 9.079038 2.519198 1.654378 1.10185-4.120738 2.72898-3.227066 1.70562 1.154706 0.8408-2.78184-2.23091-1.442958-2.49358 3.436851 0.70948-2.176461zm-30.614683 2.493565 0.02572 2.125233-2.019518 1.07624c0.236154-1.495652 1.101756-2.65045 1.993894-3.201473zm18.314999 0 0.02572 2.125233-2.019519 1.07624c0.236155-1.49562 1.101897-2.650418 1.993896-3.201473zm29.618534 1.449398c-1.43237 3.042675-3.54256 3.902895-3.54256 3.902895l-0.1986 0.11684 0.32991-1.24437z" fill="#fff" filter="url(#a)" stroke-width=".387395"/></svg>
