<svg width="191.49907mm" height="65.566147mm" version="1.1" viewBox="0 0 191.49907 65.566147" xmlns="http://www.w3.org/2000/svg"><path d="m19.711307 0c-7.721541 3.0479771-13.0052615 10.161843-14.9695186 16.325557l15.2382366 15.845881c-1.625587 3.793092-7.989731 7.453144-11.5795683 7.656343l1.8934093-7.317305-6.3664875-4.200289-3.9273785 14.837249 6.7716291 4.266367c9.3471299-0.474396 18.9669699-7.043866 22.1504179-16.594194l-15.172087-15.713643c1.219191-3.725332 5.62215-7.5889825 8.805598-8.8758529v8.4665759l7.110619 2.439102v-12.3278272zm124.849323 1.1534313-26.4168 1.4883089 3.65867 6.8418683 7.85476-0.475194-8.94202 34.2054235 6.37062 4.200208 10.22773-38.8810679 11.31085-0.7439944zm17.67734 3.2494156-1.2857 5.0807616 5.28336 7.7225015 2.23241-8.6733743zm-122.968313 15.2382051c-5.554094 1.964225-10.566721 9.552249-10.566721 18.086584 0 1.828787 0.268401 3.657173 0.810282 5.485959l7.925036 4.200208c5.166346-0.469596 7.788478-1.397829 12.365044-3.489174l6.585598 3.489174c4.97505-0.451996 7.591151-1.329909 11.864823-3.261735l5.270952 3.261735 11.78627-18.222982-4.134082 14.837168 5.419783 3.385814 9.392632-4.067889 7.677006 4.067889c5.96048-0.541594 8.53457-1.694387 14.63052-4.539165l2.02983-0.946713-3.04682-5.419799-3.25352 1.694947c-4.06398 2.099744-7.72135 3.183256-11.64985 3.183256-0.47408-1.35463-0.74416-2.777179-0.74416-4.402767l10.70314-2.373022 1.35598-9.752247-8.19789-5.217241c-5.41875 1.916386-10.322711 9.187931-10.55844 17.466509l-6.374739 3.327895 4.063801-15.374604-7.110614-4.402848-10.500578 15.916281 4.741796-12.733025-6.569062-4.063809-4.617766 17.478909-1.819002 0.946713c-4.063969 2.099744-7.721342 3.183256-11.64984 3.183256-0.474156-1.35463-0.744154-2.777179-0.744154-4.402767l10.703143-2.373022 1.355974-9.752247-8.197883-5.217241c-5.554094 1.964225-10.566721 9.552249-10.566721 18.086584 0 0.183201 0.0029 0.367194 8e-3 0.549595-4.006362 2.051105-7.623142 3.108858-11.505121 3.108858-0.474156-1.35463-0.744154-2.777179-0.744154-4.402767l0.268721-2.439102c0.609592-3.86077 2.844015-6.841708 5.146934-8.264097l0.946705 4.146528 4.650845 2.281983-0.08264-8.226818zm120.595343 0.136001-6.23006 23.572543 6.23006 4.063809 6.27554-2.761579-3.83642 15.089406 4.87822 5.824916 5.03944-19.012576 1.2609 0.859833s2.94082-0.709595 7.04448-3.456054c4.10365-2.74694 6.62859-6.104274 7.69863-8.125059 2.3503-3.505734 2.90646-7.597782 3.27328-11.718552l-5.48599-3.658694-9.41744 9.41337 1.69498-6.093715-5.82492-3.99765-4.40281 17.32187-6.90806 3.538774 4.5351-16.862994zm-21.06315 0.064-6.09778 23.436144 6.50293 4.270528 2.84424-10.63704 7.04448-8.330177 4.4028 2.980697 2.17039-7.180906-5.75878-3.724772-6.43677 8.871694 1.83141-5.618198zm-79.027139 6.436752 0.0664 5.485959-5.213081 2.778139c0.609595-3.860773 2.844018-6.841711 5.146937-8.2641zm47.277379 0 0.0664 5.485959-5.21308 2.778139c0.6096-3.860691 2.84438-6.841629 5.14694-8.264098zm76.45573 3.741411c-3.69744 7.854182-9.14459 10.074725-9.14459 10.074725l-0.51264 0.301593 0.85161-3.212135z" fill="#fff"/></svg>
